<?xml version="1.0" standalone="no"?>
<!DOCTYPE svg PUBLIC "-//W3C//DTD SVG 20010904//EN"
 "http://www.w3.org/TR/2001/REC-SVG-20010904/DTD/svg10.dtd">
<svg version="1.0" xmlns="http://www.w3.org/2000/svg"
 width="715.000000pt" height="715.000000pt" viewBox="0 0 715.000000 715.000000"
 preserveAspectRatio="xMidYMid meet">
<metadata>
Created by potrace 1.14, written by Peter Selinger 2001-2017
</metadata>
<g transform="translate(0.000000,715.000000) scale(0.100000,-0.100000)"
fill="#000000" stroke="none">
<path d="M4599 4502 c-71 -76 -148 -160 -231 -252 l-68 -75 -124 1 c-83 1
-126 -3 -129 -10 -2 -6 -3 -163 -2 -348 0 -270 -2 -335 -12 -326 -7 6 -13 15
-13 20 0 5 -14 30 -32 56 -106 154 -272 232 -490 230 -205 -2 -368 -79 -475
-223 -19 -25 -16 -11 17 89 22 66 40 120 40 120 0 1 -97 1 -214 1 -131 0 -219
-4 -224 -10 -5 -5 -26 -80 -47 -165 -82 -344 -145 -593 -149 -598 -7 -7 -12 7
-41 133 -67 281 -146 602 -154 620 -8 19 -18 20 -224 20 -120 0 -217 -2 -217
-6 0 -3 8 -32 19 -63 l19 -57 -22 16 c-57 41 -128 77 -191 98 -100 31 -298 31
-400 0 -85 -27 -182 -87 -242 -151 -53 -57 -117 -186 -133 -267 -17 -85 -19
-229 -5 -300 7 -33 14 -69 16 -80 4 -19 -3 -19 -206 -20 -115 0 -215 1 -222 3
-8 3 -11 141 -12 550 0 301 0 574 0 608 l-1 61 -210 -1 -210 0 0 -781 0 -781
515 0 515 0 0 48 c0 26 2 48 5 48 3 0 27 -14 54 -30 94 -58 183 -81 333 -84
258 -7 465 95 548 268 15 34 31 77 35 96 l6 35 -186 -1 -186 -1 -39 -41 c-43
-44 -88 -62 -158 -62 -46 0 -105 21 -136 48 -26 24 -56 91 -56 130 l0 32 78 1
c42 0 213 0 379 0 274 0 302 1 305 17 2 9 41 -98 88 -238 47 -140 88 -257 92
-260 4 -3 114 -6 244 -5 200 0 238 2 245 15 5 8 56 156 113 328 58 173 106
315 108 317 2 2 2 -34 1 -79 -4 -231 102 -436 273 -528 187 -101 492 -98 680
7 56 32 164 134 164 156 0 5 4 9 8 9 4 0 7 -51 7 -112 l0 -113 210 0 210 0 0
182 c0 101 1 183 2 183 0 0 14 -28 30 -62 35 -74 113 -163 183 -208 191 -123
490 -149 730 -66 168 59 293 182 352 347 22 64 22 67 23 624 l0 560 -210 0
-210 0 -1 -510 c0 -490 -1 -512 -21 -555 -24 -54 -75 -108 -121 -127 -127 -53
-276 -1 -333 114 l-23 48 -1 515 0 515 68 -1 c37 -1 67 -1 67 1 0 4 -58 68
-279 310 -36 38 -65 71 -66 73 -1 1 -26 -24 -56 -56z m-3084 -1009 c56 -16
115 -85 115 -135 l0 -24 -185 1 c-209 0 -207 -1 -163 77 43 76 137 109 233 81z
m2060 1 c61 -13 125 -85 125 -141 0 -18 -11 -19 -185 -19 -175 0 -185 1 -185
19 0 59 70 131 142 147 33 7 45 6 103 -6z m426 -393 l46 -1 -1 -52 -1 -53
-160 -2 c-88 -1 -164 -2 -170 -2 -5 -1 -19 -15 -30 -31 -54 -82 -219 -94 -298
-22 -44 39 -77 154 -47 164 8 2 390 2 661 -1z"/>
<path d="M5900 4170 c-4 -3 -8 -354 -8 -781 l-1 -776 210 0 c145 0 209 3 210
11 1 6 3 106 4 221 2 116 3 215 4 220 1 7 59 11 164 12 263 2 398 45 515 163
93 95 138 201 146 345 16 286 -140 503 -409 570 -60 15 -124 18 -448 19 -209
0 -383 -1 -387 -4z m645 -345 c105 -27 158 -97 157 -206 0 -91 -46 -161 -127
-195 -47 -19 -252 -27 -258 -10 -2 10 -1 382 2 412 1 13 176 12 226 -1z"/>
</g>
</svg>
